static pose
version=1
nRows=1
nColumns=406
inDegrees=no
endheader
time	FHD_tx	FHD_ty	FHD_tz	LBHD_tx	LBHD_ty	LBHD_tz	RBHD_tx	RBHD_ty	RBHD_tz	C7_tx	C7_ty	C7_tz	T10_tx	T10_ty	T10_tz	CLAV_tx	CLAV_ty	CLAV_tz	LSHO_tx	LSHO_ty	LSHO_tz	LUUPA_tx	LUUPA_ty	LUUPA_tz	LMUPA_tx	LMUPA_ty	LMUPA_tz	LDUPA_tx	LDUPA_ty	LDUPA_tz	LLEP_tx	LLEP_ty	LLEP_tz	LMEP_tx	LMEP_ty	LMEP_tz	LRAD_tx	LRAD_ty	LRAD_tz	LUL_tx	LUL_ty	LUL_tz	LRFIN_tx	LRFIN_ty	LRFIN_tz	RSHO_tx	RSHO_ty	RSHO_tz	RUPA1_tx	RUPA1_ty	RUPA1_tz	RMUPA_tx	RMUPA_ty	RMUPA_tz	RDUPA_tx	RDUPA_ty	RDUPA_tz	RLEP_tx	RLEP_ty	RLEP_tz	RMEP_tx	RMEP_ty	RMEP_tz	RRAD_tx	RRAD_ty	RRAD_tz	RUL_tx	RUL_ty	RUL_tz	RUFIN_tx	RUFIN_ty	RUFIN_tz	LASI_tx	LASI_ty	LASI_tz	RASI_tx	RASI_ty	RASI_tz	USACR_tx	USACR_ty	USACR_tz	LSACR_tx	LSACR_ty	LSACR_tz	RSACR_tx	RSACR_ty	RSACR_tz	LTHI1_tx	LTHI1_ty	LTHI1_tz	LTHI2_tx	LTHI2_ty	LTHI2_tz	LTHI3_tx	LTHI3_ty	LTHI3_tz	LTHI4_tx	LTHI4_ty	LTHI4_tz	LLFC_tx	LLFC_ty	LLFC_tz	LMFC_tx	LMFC_ty	LMFC_tz	LTIB1_tx	LTIB1_ty	LTIB1_tz	LTIB2_tx	LTIB2_ty	LTIB2_tz	LTIB3_tx	LTIB3_ty	LTIB3_tz	LTIB4_tx	LTIB4_ty	LTIB4_tz	LLMAL_tx	LLMAL_ty	LLMAL_tz	LMMAL_tx	LMMAL_ty	LMMAL_tz	LHEE_tx	LHEE_ty	LHEE_tz	LMT1_tx	LMT1_ty	LMT1_tz	LMT5_tx	LMT5_ty	LMT5_tz	LMT2_tx	LMT2_ty	LMT2_tz	RTHI_tx	RTHI_ty	RTHI_tz	RTHI2_tx	RTHI2_ty	RTHI2_tz	RTHI3_tx	RTHI3_ty	RTHI3_tz	RTHI4_tx	RTHI4_ty	RTHI4_tz	RLFC_tx	RLFC_ty	RLFC_tz	RMFC_tx	RMFC_ty	RMFC_tz	RTIB1_tx	RTIB1_ty	RTIB1_tz	RTIB2_tx	RTIB2_ty	RTIB2_tz	RTIB3_tx	RTIB3_ty	RTIB3_tz	RTIB4_tx	RTIB4_ty	RTIB4_tz	RLMAL_tx	RLMAL_ty	RLMAL_tz	RMMAL_tx	RMMAL_ty	RMMAL_tz	RHEE_tx	RHEE_ty	RHEE_tz	RMT1_tx	RMT1_ty	RMT1_tz	RMT2_tx	RMT2_ty	RMT2_tz	RMT5_tx	RMT5_ty	RMT5_tz	LAJC_tx	LAJC_ty	LAJC_tz	RAJC_tx	RAJC_ty	RAJC_tz	LHJC_tx	LHJC_ty	LHJC_tz	RHJC_tx	RHJC_ty	RHJC_tz	LKJC_tx	LKJC_ty	LKJC_tz	RKJC_tx	RKJC_ty	RKJC_tz	pelvis_tilt	pelvis_list	pelvis_rotation	pelvis_tx	pelvis_ty	pelvis_tz	hip_flexion_r	hip_adduction_r	hip_rotation_r	knee_angle_r	knee_angle_r_beta	ankle_angle_r	subtalar_angle_r	mtp_angle_r	hip_flexion_l	hip_adduction_l	hip_rotation_l	knee_angle_l	knee_angle_l_beta	ankle_angle_l	subtalar_angle_l	mtp_angle_l	lumbar_extension	lumbar_bending	lumbar_rotation	arm_flex_r	arm_add_r	arm_rot_r	elbow_flex_r	pro_sup_r	wrist_flex_r	wrist_dev_r	arm_flex_l	arm_add_l	arm_rot_l	elbow_flex_l	pro_sup_l	wrist_flex_l	wrist_dev_l	pelvis_tilt_u	pelvis_list_u	pelvis_rotation_u	pelvis_tx_u	pelvis_ty_u	pelvis_tz_u	hip_flexion_r_u	hip_adduction_r_u	hip_rotation_r_u	knee_angle_r_u	knee_angle_r_beta_u	ankle_angle_r_u	subtalar_angle_r_u	mtp_angle_r_u	hip_flexion_l_u	hip_adduction_l_u	hip_rotation_l_u	knee_angle_l_u	knee_angle_l_beta_u	ankle_angle_l_u	subtalar_angle_l_u	mtp_angle_l_u	lumbar_extension_u	lumbar_bending_u	lumbar_rotation_u	arm_flex_r_u	arm_add_r_u	arm_rot_r_u	elbow_flex_r_u	pro_sup_r_u	wrist_flex_r_u	wrist_dev_r_u	arm_flex_l_u	arm_add_l_u	arm_rot_l_u	elbow_flex_l_u	pro_sup_l_u	wrist_flex_l_u	wrist_dev_l_u	addbrev_r.activation	addlong_r.activation	addlong_r.fiber_length	addmagDist_r.activation	addmagIsch_r.activation	addmagIsch_r.fiber_length	addmagMid_r.activation	addmagProx_r.activation	bflh_r.activation	bflh_r.fiber_length	bfsh_r.activation	edl_r.activation	edl_r.fiber_length	ehl_r.activation	ehl_r.fiber_length	fdl_r.activation	fdl_r.fiber_length	fhl_r.activation	fhl_r.fiber_length	gaslat_r.activation	gaslat_r.fiber_length	gasmed_r.activation	gasmed_r.fiber_length	glmax1_r.activation	glmax2_r.activation	glmax3_r.activation	glmed1_r.activation	glmed2_r.activation	glmed3_r.activation	glmin1_r.activation	glmin2_r.activation	glmin3_r.activation	glmin3_r.fiber_length	grac_r.activation	iliacus_r.activation	perbrev_r.activation	perbrev_r.fiber_length	perlong_r.activation	perlong_r.fiber_length	piri_r.activation	piri_r.fiber_length	psoas_r.activation	recfem_r.activation	recfem_r.fiber_length	sart_r.activation	semimem_r.activation	semimem_r.fiber_length	semiten_r.activation	semiten_r.fiber_length	soleus_r.activation	soleus_r.fiber_length	tfl_r.activation	tfl_r.fiber_length	tibant_r.activation	tibant_r.fiber_length	tibpost_r.activation	tibpost_r.fiber_length	vasint_r.activation	vasint_r.fiber_length	vaslat_r.activation	vaslat_r.fiber_length	vasmed_r.activation	vasmed_r.fiber_length	addbrev_l.activation	addlong_l.activation	addlong_l.fiber_length	addmagDist_l.activation	addmagIsch_l.activation	addmagIsch_l.fiber_length	addmagMid_l.activation	addmagProx_l.activation	bflh_l.activation	bflh_l.fiber_length	bfsh_l.activation	edl_l.activation	edl_l.fiber_length	ehl_l.activation	ehl_l.fiber_length	fdl_l.activation	fdl_l.fiber_length	fhl_l.activation	fhl_l.fiber_length	gaslat_l.activation	gaslat_l.fiber_length	gasmed_l.activation	gasmed_l.fiber_length	glmax1_l.activation	glmax2_l.activation	glmax3_l.activation	glmed1_l.activation	glmed2_l.activation	glmed3_l.activation	glmin1_l.activation	glmin2_l.activation	glmin3_l.activation	glmin3_l.fiber_length	grac_l.activation	iliacus_l.activation	perbrev_l.activation	perbrev_l.fiber_length	perlong_l.activation	perlong_l.fiber_length	piri_l.activation	piri_l.fiber_length	psoas_l.activation	recfem_l.activation	recfem_l.fiber_length	sart_l.activation	semimem_l.activation	semimem_l.fiber_length	semiten_l.activation	semiten_l.fiber_length	soleus_l.activation	soleus_l.fiber_length	tfl_l.activation	tfl_l.fiber_length	tibant_l.activation	tibant_l.fiber_length	tibpost_l.activation	tibpost_l.fiber_length	vasint_l.activation	vasint_l.fiber_length	vaslat_l.activation	vaslat_l.fiber_length	vasmed_l.activation	vasmed_l.fiber_length
  0.00000000	 -0.19061002	  1.75341008	 -0.89042577	 -0.36710982	  1.70492746	 -0.96568362	 -0.31957212	  1.70117487	 -0.84503705	 -0.35926434	  1.53982517	 -0.92885193	 -0.37641273	  1.19251113	 -0.92542992	 -0.22672153	  1.45923857	 -0.93983016	 -0.29611621	  1.51959549	 -1.07745848	 -0.35188750	  1.37908712	 -1.20930869	 -0.31121404	  1.36910006	 -1.23384718	 -0.34991996	  1.32517424	 -1.25177793	 -0.34287038	  1.22154898	 -1.30047796	 -0.29883112	  1.18806324	 -1.25949979	 -0.24965746	  1.11723636	 -1.51608186	 -0.27013311	  1.05145231	 -1.48489965	 -0.25724322	  1.06804207	 -1.59278049	 -0.29608164	  1.51780482	 -0.76999137	 -0.33671926	  1.37607203	 -0.66321406	 -0.30153653	  1.35277277	 -0.64558255	 -0.34752012	  1.31767248	 -0.62946156	 -0.34971576	  1.19649894	 -0.58095954	 -0.31607085	  1.16527711	 -0.63174002	 -0.24710505	  1.07861623	 -0.37127019	 -0.28285481	  1.03029750	 -0.40144792	 -0.24525621	  1.02232994	 -0.30023080	 -0.20990454	  1.01404733	 -1.04313114	 -0.20088517	  1.01547049	 -0.82281654	 -0.38205677	  1.11287622	 -0.92031111	 -0.38881604	  1.07918773	 -0.94558602	 -0.38439899	  1.08206570	 -0.88790324	 -0.30150133	  0.78779237	 -1.13284877	 -0.28004011	  0.70504658	 -1.12708052	 -0.23619514	  0.70229554	 -1.10925293	 -0.31651209	  0.65606609	 -1.12152345	 -0.34675962	  0.50668527	 -1.10451738	 -0.32011117	  0.50472334	 -0.97747139	 -0.29773048	  0.37472942	 -1.08724228	 -0.35964284	  0.33406153	 -1.13412676	 -0.32011957	  0.33008078	 -1.11606266	 -0.31377869	  0.24823055	 -1.09075576	 -0.35995243	  0.09669960	 -1.11037514	 -0.34649605	  0.10546247	 -1.02092591	 -0.42398481	  0.04480699	 -1.07077596	 -0.20561096	  0.05911817	 -1.04527022	 -0.24084369	  0.03938689	 -1.14537296	 -0.20237272	  0.05883749	 -1.09403569	 -0.28524392	  0.77428182	 -0.74158553	 -0.26210526	  0.71588034	 -0.74743890	 -0.23344495	  0.70874748	 -0.76043888	 -0.30987485	  0.64261766	 -0.76304426	 -0.31469766	  0.53180344	 -0.77579464	 -0.30473934	  0.50139758	 -0.91043758	 -0.28472457	  0.31302068	 -0.79493129	 -0.35236082	  0.23884863	 -0.75395185	 -0.30889130	  0.23589141	 -0.76932455	 -0.30067325	  0.18615308	 -0.79664874	 -0.35671949	  0.09755647	 -0.76082133	 -0.33061069	  0.10451162	 -0.85126888	 -0.41541179	  0.04155761	 -0.80357538	 -0.19272566	  0.06031775	 -0.81351619	 -0.19372383	  0.06287530	 -0.77063963	 -0.23365077	  0.04137235	 -0.71656726	 -0.35322424	  0.10108103	 -1.06565053	 -0.34366509	  0.10103404	 -0.80604510	 -0.28779740	  0.96097959	 -1.00938797	 -0.28124742	  0.96201310	 -0.84939286	 -0.33343539	  0.50570431	 -1.04099439	 -0.30971850	  0.51660051	 -0.84311611	 -0.11036323	  0.00472015	  0.05726578	 -0.23250725	  1.01678072	 -0.93519287	  0.08635541	 -0.07711766	 -0.10864282	  0.04953838	  0.04953838	  0.07858469	  0.00000000	  0.00000000	  0.07780773	 -0.06678616	  0.05199080	  0.03178979	  0.03178979	  0.05510385	  0.00000000	  0.00000000	  0.00489386	 -0.00520537	 -0.06609398	 -0.11157450	 -0.49439633	 -1.00056913	  0.71009602	  0.89242904	  0.00000000	  0.00000000	 -0.10241850	 -0.58062573	 -1.09268875	  0.67838801	  0.83219044	  0.00000000	  0.00000000	  0.00000000	  0.00000000	  0.00000000	  0.00000000	  0.00000000	  0.00000000	  0.00000000	  0.00000000	  0.00000000	  0.00000000	  0.00000000	  0.00000000	  0.00000000	  0.00000000	  0.00000000	  0.00000000	  0.00000000	  0.00000000	  0.00000000	  0.00000000	  0.00000000	  0.00000000	  0.00000000	  0.00000000	  0.00000000	  0.00000000	  0.00000000	  0.00000000	  0.00000000	  0.00000000	  0.00000000	  0.00000000	  0.00000000	  0.00000000	  0.00000000	  0.00000000	  0.00000000	  0.00000000	  0.00000000	  0.01000000	  0.01000000	  0.10000000	  0.01000000	  0.01000000	  0.10000000	  0.01000000	  0.01000000	  0.01000000	  0.10000000	  0.01000000	  0.01000000	  0.10000000	  0.01000000	  0.10000000	  0.01000000	  0.10000000	  0.01000000	  0.10000000	  0.01000000	  0.10000000	  0.01000000	  0.10000000	  0.01000000	  0.01000000	  0.01000000	  0.01000000	  0.01000000	  0.01000000	  0.01000000	  0.01000000	  0.01000000	  0.10000000	  0.01000000	  0.01000000	  0.01000000	  0.10000000	  0.01000000	  0.10000000	  0.01000000	  0.10000000	  0.01000000	  0.01000000	  0.10000000	  0.01000000	  0.01000000	  0.10000000	  0.01000000	  0.10000000	  0.01000000	  0.10000000	  0.01000000	  0.10000000	  0.01000000	  0.10000000	  0.01000000	  0.10000000	  0.01000000	  0.10000000	  0.01000000	  0.10000000	  0.01000000	  0.10000000	  0.01000000	  0.01000000	  0.10000000	  0.01000000	  0.01000000	  0.10000000	  0.01000000	  0.01000000	  0.01000000	  0.10000000	  0.01000000	  0.01000000	  0.10000000	  0.01000000	  0.10000000	  0.01000000	  0.10000000	  0.01000000	  0.10000000	  0.01000000	  0.10000000	  0.01000000	  0.10000000	  0.01000000	  0.01000000	  0.01000000	  0.01000000	  0.01000000	  0.01000000	  0.01000000	  0.01000000	  0.01000000	  0.10000000	  0.01000000	  0.01000000	  0.01000000	  0.10000000	  0.01000000	  0.10000000	  0.01000000	  0.10000000	  0.01000000	  0.01000000	  0.10000000	  0.01000000	  0.01000000	  0.10000000	  0.01000000	  0.10000000	  0.01000000	  0.10000000	  0.01000000	  0.10000000	  0.01000000	  0.10000000	  0.01000000	  0.10000000	  0.01000000	  0.10000000	  0.01000000	  0.10000000	  0.01000000	  0.10000000
